<?xml version="1.0" encoding="UTF-8"?>
<svg width="164px" height="40px" viewBox="0 0 164 41" version="1.1" xmlns="http://www.w3.org/2000/svg" xmlns:xlink="http://www.w3.org/1999/xlink">
    <!-- Generator: Sketch 46.2 (44496) - http://www.bohemiancoding.com/sketch -->
    <title>New_logo Copy</title>
    <desc>Created with Sketch.</desc>
    <defs></defs>
    <g id="Page-1" stroke="none" stroke-width="1" fill="none" fill-rule="evenodd">
        <g id="CHI_Email" transform="translate(-291.000000, -26.000000)" fill="#FEFEFE">
            <g id="New_logo" transform="translate(291.000000, 25.000000)">
                <g>
                    <path d="M28.234614,22.4216276 L15.9734561,22.4216276 L15.9734561,20.9212138 C16.2309649,20.8951448 16.5445789,20.8603862 16.9114211,20.8198345 C17.2782632,20.7778345 17.5573509,20.7097655 17.7472456,20.6141793 C18.0335263,20.4635586 18.237807,20.244869 18.3600877,19.9566621 C18.4823684,19.6684552 18.5427895,19.2441103 18.5427895,18.6821793 L18.5427895,9.06852414 C18.5427895,7.67238621 18.2867193,6.62093793 17.7760175,5.91562759 C17.2653158,5.21031724 16.5114912,4.85838621 15.5159825,4.85838621 C14.9693158,4.85838621 14.4614912,4.94093793 13.9910702,5.1045931 C13.5206491,5.26969655 13.0602982,5.50866207 12.6114561,5.82438621 C12.2144035,6.09811034 11.8979123,6.37762759 11.6591053,6.66583448 C11.4202982,6.9525931 11.2188947,7.20748966 11.0563333,7.42617931 L11.0563333,18.4576966 C11.0563333,18.9370759 11.1239474,19.3368 11.260614,19.6583172 C11.3958421,19.9798345 11.6202632,20.2231448 11.9324386,20.3882483 C12.1496667,20.5113517 12.423,20.6214207 12.7495614,20.7170069 C13.0746842,20.8125931 13.3954912,20.8806621 13.7076667,20.9212138 L13.7076667,22.4216276 L1.30408772,22.4216276 L1.30408772,20.9212138 C1.64359649,20.8951448 1.98742105,20.8560414 2.33412281,20.8096966 C2.68082456,20.7619034 2.97573684,20.696731 3.22173684,20.6141793 C3.65619298,20.4635586 3.95685965,20.2303862 4.11942105,19.9161103 C4.28198246,19.6003862 4.36398246,19.1890759 4.36398246,18.6821793 L4.36398246,6.72811034 C4.36398246,6.30376552 4.25464912,5.88521379 4.03742105,5.47390345 C3.82019298,5.06404138 3.53391228,4.72804138 3.18001754,4.4688 C2.93545614,4.30369655 2.62615789,4.16755862 2.25212281,4.05748966 C1.87808772,3.94742069 1.46664912,3.87211034 1.01780702,3.83155862 L1.01780702,2.33114483 L10.7499123,1.79673103 L11.0563333,2.10521379 L11.0563333,5.08431724 L11.1368947,5.08431724 C11.5181228,4.74107586 11.9799123,4.33121379 12.5251404,3.85183448 C13.0689298,3.37245517 13.5724386,2.98286897 14.0342281,2.68017931 C14.5377368,2.35286897 15.196614,2.07190345 16.0137368,1.83873103 C16.8294211,1.60555862 17.6997719,1.48969655 18.6247895,1.48969655 C20.8416667,1.48969655 22.5046842,2.1225931 23.6138421,3.38983448 C24.7215614,4.65562759 25.2754211,6.33707586 25.2754211,8.43273103 L25.2754211,18.4982483 C25.2754211,19.0051448 25.3502281,19.4092138 25.4998421,19.7090069 C25.6494561,20.0116966 25.9285439,20.2506621 26.3371053,20.4288 C26.5543333,20.5243862 26.8233509,20.6214207 27.1427193,20.7170069 C27.4620877,20.8125931 27.8260526,20.8806621 28.234614,20.9212138 L28.234614,22.4216276 Z" id="Fill-1"></path>
                    <path d="M57.9892491,21.990331 L48.2571439,22.5855724 L47.9507228,22.2988138 L47.9507228,19.606469 L47.8298807,19.606469 C47.3680912,20.0322621 46.9163719,20.446469 46.4747228,20.8490897 C46.0330737,21.2546069 45.5065474,21.6210207 44.8951439,21.9497793 C44.2031789,22.3190897 43.5471789,22.5928138 42.9300211,22.7709517 C42.3114246,22.9490897 41.4123018,23.0374345 40.2297754,23.0374345 C38.1783368,23.0374345 36.6073895,22.4146759 35.5140561,21.1691586 C34.4207228,19.9221931 33.8740561,18.1625379 33.8740561,15.8901931 L33.8740561,6.64584828 C33.8740561,6.11143448 33.7733544,5.67695172 33.5690737,5.34095172 C33.3676702,5.00495172 33.097214,4.70805517 32.7577053,4.44736552 C32.4886877,4.24171034 32.1362316,4.09543448 31.7046526,4.00564138 C31.2716351,3.91729655 30.8788982,3.85791724 30.5278807,3.8304 L30.5278807,2.33143448 L40.3837053,1.79702069 L40.6066877,2.10550345 L40.6066877,15.7656414 C40.6066877,17.1762621 40.8757053,18.2175724 41.4123018,18.8881241 C41.9503368,19.5601241 42.6883368,19.8946759 43.6263018,19.8946759 C44.5916,19.8946759 45.4590737,19.6412276 46.2272842,19.134331 C46.9954947,18.6288828 47.5565474,18.0872276 47.9104421,17.5122621 L47.9104421,6.4401931 C47.9104421,5.97384828 47.8226877,5.55674483 47.6457404,5.18598621 C47.468793,4.81667586 47.2098456,4.51688276 46.8703368,4.28226207 C46.6257754,4.1186069 46.2747579,4.00853793 45.8201614,3.95350345 C45.3641263,3.89991724 44.8980211,3.85791724 44.4218456,3.8304 L44.4218456,2.33143448 L54.3366526,1.79702069 L54.6430737,2.10550345 L54.6430737,17.9641241 C54.6430737,18.4435034 54.7380211,18.850469 54.9279158,19.186469 C55.1163719,19.5210207 55.3925825,19.806331 55.7594246,20.0380552 C56.0154947,20.2031586 56.3492491,20.3161241 56.7621263,20.3769517 C57.1750035,20.4392276 57.5835649,20.4768828 57.9892491,20.4899172 L57.9892491,21.990331 Z" id="Fill-3"></path>
                    <path d="M84.1732877,3.54306207 C83.5618842,3.63864828 82.9663053,3.87182069 82.3894281,4.24113103 C81.8096737,4.61188966 81.3306211,5.18685517 80.9508316,5.96747586 C79.9984807,7.96754483 79.0619544,9.98354483 78.1455684,12.0169241 C77.2263053,14.0503034 76.3257439,16.0199586 75.4424456,17.9229931 C75.1691123,18.4979586 74.859814,19.2365793 74.5131123,20.1417517 C74.1664105,21.0440276 73.8772526,21.8666483 73.6470772,22.6067172 L69.8923404,22.6067172 C68.328586,18.9498207 66.9921298,15.9156828 65.8829719,13.5057517 C64.7752526,11.0958207 63.6013579,8.50775172 62.3641649,5.74154483 C62.0793228,5.09851034 61.6333579,4.59161379 61.0277088,4.22085517 C60.4220596,3.85154483 59.8077789,3.62561379 59.1805509,3.54306207 L59.1805509,2.04409655 L71.7495684,2.04409655 L71.7495684,3.54306207 C71.2863404,3.55754483 70.7439895,3.66037241 70.1167614,3.85154483 C69.4924105,4.04416552 69.1802351,4.29037241 69.1802351,4.59161379 C69.1802351,4.67271724 69.2075684,4.79582069 69.2607965,4.96092414 C69.3154632,5.12457931 69.3845158,5.30995862 69.4650772,5.51561379 C69.9024105,6.55692414 70.5598491,8.05444138 71.4388316,10.0125103 C72.3192526,11.969131 73.2500246,14.0300276 74.2311474,16.1923034 C74.9116035,14.7005793 75.5589719,13.239269 76.1761298,11.8098207 C76.7947263,10.3789241 77.5571825,8.55409655 78.467814,6.33678621 C78.5900947,6.00802759 78.6620246,5.74154483 78.6836035,5.53588966 C78.7023053,5.33023448 78.7123754,5.19409655 78.7123754,5.12457931 C78.7123754,4.87837241 78.5929719,4.66257931 78.3556035,4.47864828 C78.1167965,4.29326897 77.8348316,4.13251034 77.5068316,3.99492414 C77.1658842,3.85878621 76.8378842,3.75595862 76.5257088,3.68788966 C76.2106561,3.61837241 75.9517088,3.57057931 75.7474281,3.54306207 L75.7474281,2.04409655 L84.1732877,2.04409655 L84.1732877,3.54306207 Z" id="Fill-5"></path>
                    <path d="M99.9951158,9.70605517 C99.9951158,8.88488276 99.9548351,8.04198621 99.8713965,7.17881379 C99.7893965,6.31708966 99.648414,5.61177931 99.4441333,5.06288276 C99.2125193,4.41984828 98.8960281,3.93322759 98.4946596,3.60591724 C98.0947298,3.27715862 97.5869053,3.11205517 96.9740632,3.11205517 C95.9282035,3.11205517 95.0909404,3.64646897 94.4651509,4.71384828 C93.8408,5.78267586 93.498414,7.47426207 93.445186,9.7886069 L99.9951158,9.70605517 Z M107.787993,17.5122621 C107.311818,18.2928828 106.737818,19.0286069 106.064554,19.7208828 C105.391291,20.4117103 104.625958,21.0040552 103.768554,21.4979172 C102.856484,22.0178483 101.937221,22.410331 101.003572,22.6782621 C100.0728,22.9447448 99.0024842,23.0779862 97.791186,23.0779862 C95.7771509,23.0779862 94.0393263,22.7912276 92.5791509,22.2162621 C91.1160982,21.6412966 89.9091158,20.8679172 88.9567649,19.8946759 C88.004414,18.9228828 87.2937474,17.7758483 86.8247649,16.4535724 C86.3572211,15.1327448 86.1198526,13.6975034 86.1198526,12.1507448 C86.1198526,10.7531586 86.3759228,9.41495172 86.8866246,8.13467586 C87.3958877,6.8544 88.1209404,5.7146069 89.0589053,4.71384828 C89.9839228,3.74205517 91.1506246,2.9541931 92.5575719,2.35171034 C93.9659579,1.74922759 95.5397825,1.44798621 97.2804842,1.44798621 C99.185186,1.44798621 100.74894,1.68115862 101.973186,2.14605517 C103.197432,2.6124 104.211642,3.25543448 105.01294,4.07805517 C105.788344,4.85867586 106.352274,5.77977931 106.706168,6.83991724 C107.060063,7.90150345 107.237011,9.01377931 107.237011,10.1781931 L107.237011,11.5135034 L93.445186,11.5135034 C93.445186,14.3217103 93.9817825,16.4579172 95.056414,17.9221241 C96.1310456,19.3892276 97.8386596,20.1206069 100.177818,20.1206069 C101.45673,20.1206069 102.60473,19.7686759 103.626133,19.0619172 C104.646098,18.3580552 105.516449,17.464469 106.237186,16.3811586 L107.787993,17.5122621 Z" id="Fill-7"></path>
                    <path d="M125.138186,9.70605517 C125.138186,8.88488276 125.097905,8.04198621 125.015905,7.17881379 C124.933905,6.31708966 124.791484,5.61177931 124.587204,5.06288276 C124.355589,4.41984828 124.039098,3.93322759 123.639168,3.60591724 C123.2378,3.27715862 122.731414,3.11205517 122.118572,3.11205517 C121.071274,3.11205517 120.235449,3.64646897 119.60966,4.71384828 C118.98387,5.78267586 118.642923,7.47426207 118.589695,9.7886069 L125.138186,9.70605517 Z M132.932502,17.5122621 C132.456326,18.2928828 131.880888,19.0286069 131.209063,19.7208828 C130.534361,20.4117103 129.770467,21.0040552 128.913063,21.4979172 C128.000993,22.0178483 127.080291,22.410331 126.148081,22.6782621 C125.217309,22.9447448 124.146993,23.0779862 122.935695,23.0779862 C120.92166,23.0779862 119.183835,22.7912276 117.722221,22.2162621 C116.260607,21.6412966 115.052186,20.8679172 114.101274,19.8946759 C113.148923,18.9228828 112.438256,17.7758483 111.969274,16.4535724 C111.500291,15.1327448 111.264361,13.6975034 111.264361,12.1507448 C111.264361,10.7531586 111.520432,9.41495172 112.031133,8.13467586 C112.540396,6.8544 113.264011,5.7146069 114.201975,4.71384828 C115.128432,3.74205517 116.295133,2.9541931 117.702081,2.35171034 C119.110467,1.74922759 120.682853,1.44798621 122.424993,1.44798621 C124.329695,1.44798621 125.893449,1.68115862 127.117695,2.14605517 C128.34194,2.6124 129.354712,3.25543448 130.157449,4.07805517 C130.932853,4.85867586 131.496782,5.77977931 131.850677,6.83991724 C132.204572,7.90150345 132.381519,9.01377931 132.381519,10.1781931 L132.381519,11.5135034 L118.589695,11.5135034 C118.589695,14.3217103 119.126291,16.4579172 120.200923,17.9221241 C121.275554,19.3892276 122.983168,20.1206069 125.322326,20.1206069 C126.601239,20.1206069 127.749239,19.7686759 128.769204,19.0619172 C129.789168,18.3580552 130.660958,17.464469 131.381695,16.3811586 L132.932502,17.5122621 Z" id="Fill-9"></path>
                    <g id="Group-13" transform="translate(135.228070, 0.950793)">
                        <path d="M27.8474877,21.4708345 L15.5863298,21.4708345 L15.5863298,19.9704207 C15.8424,19.9443517 16.156014,19.9095931 16.5242947,19.8690414 C16.8911368,19.8270414 17.168786,19.7589724 17.3601193,19.6633862 C17.6449614,19.5127655 17.8506807,19.2940759 17.9729614,19.005869 C18.0952421,18.7176621 18.1556632,18.2933172 18.1556632,17.7313862 L18.1556632,8.11773103 C18.1556632,6.7215931 17.899593,5.67014483 17.3874526,4.96483448 C16.8767509,4.25952414 16.1243649,3.9075931 15.1274175,3.9075931 C14.5821895,3.9075931 14.0743649,3.99014483 13.6039439,4.1538 C13.1320842,4.31890345 12.6731719,4.55786897 12.2228912,4.8735931 C11.8272772,5.14731724 11.510786,5.42683448 11.2719789,5.71504138 C11.0331719,6.0018 10.8317684,6.25669655 10.669207,6.47538621 L10.669207,17.5069034 C10.669207,17.9862828 10.7353825,18.3860069 10.8720491,18.7075241 C11.0087158,19.0290414 11.2316982,19.2723517 11.5453123,19.4374552 C11.7625404,19.5605586 12.0358737,19.6706276 12.3609965,19.7662138 C12.6875579,19.8618 13.0083649,19.929869 13.3205404,19.9704207 L13.3205404,21.4708345 L0.915522807,21.4708345 L0.915522807,19.9704207 C1.25647018,19.9443517 1.60029474,19.9052483 1.94555789,19.8589034 C2.29225965,19.8111103 2.58861053,19.7459379 2.83317193,19.6633862 C3.26906667,19.5127655 3.56829474,19.2795931 3.73085614,18.9653172 C3.89485614,18.6495931 3.97541754,18.2382828 3.97541754,17.7313862 L3.97541754,5.77731724 C3.97541754,5.35297241 3.86752281,4.93442069 3.65029474,4.52311034 C3.43162807,4.11324828 3.14678596,3.77724828 2.79289123,3.5180069 C2.54832982,3.35290345 2.23903158,3.21676552 1.86355789,3.10669655 C1.4909614,2.99662759 1.07952281,2.92131724 0.630680702,2.88076552 L0.630680702,1.38035172 L10.362786,0.845937931 L10.669207,1.15442069 L10.669207,4.13352414 L10.7497684,4.13352414 C11.1309965,3.79028276 11.592786,3.38042069 12.1365754,2.90104138 C12.6803649,2.42166207 13.1853123,2.03207586 13.6471018,1.72938621 C14.1506105,1.40207586 14.8094877,1.12111034 15.6266105,0.887937931 C16.4422947,0.654765517 17.3126456,0.538903448 18.2376632,0.538903448 C20.4545404,0.538903448 22.1175579,1.1718 23.2252772,2.43904138 C24.3344351,3.70483448 24.8882947,5.38628276 24.8882947,7.48193793 L24.8882947,17.5474552 C24.8882947,18.0543517 24.9631018,18.4584207 25.1141544,18.7582138 C25.2623298,19.0609034 25.5399789,19.299869 25.9499789,19.4780069 C26.167207,19.5735931 26.4362246,19.6706276 26.755593,19.7662138 C27.0749614,19.8618 27.4389263,19.929869 27.8474877,19.9704207 L27.8474877,21.4708345 Z" id="Fill-11"></path>
                    </g>
                    <g id="Group-16" transform="translate(0.000000, 29.916310)">
                        <path d="M4.95999298,5.84813793 L3.7630807,2.76331034 L2.58487018,5.84813793 L4.95999298,5.84813793 Z M8.13641404,9.09806897 L4.85497544,9.09806897 L4.85497544,8.70124138 C5.14413333,8.68241379 5.38437895,8.6462069 5.57571228,8.58972414 C5.76704561,8.53324138 5.86199298,8.46372414 5.86199298,8.38117241 C5.86199298,8.34786207 5.85767719,8.30586207 5.85048421,8.25806897 C5.84329123,8.20882759 5.83178246,8.16682759 5.81739649,8.12917241 L5.16427368,6.3477931 L2.39065965,6.3477931 C2.2870807,6.60848276 2.20220351,6.83731034 2.13746667,7.03137931 C2.07272982,7.22544828 2.01374737,7.40503448 1.96195789,7.56868966 C1.91304561,7.72944828 1.87995789,7.86124138 1.86125614,7.96117241 C1.84255439,8.06255172 1.83392281,8.14510345 1.83392281,8.20882759 C1.83392281,8.35655172 1.95044912,8.47241379 2.18494035,8.55496552 C2.41799298,8.63751724 2.68125614,8.68675862 2.97472982,8.70124138 L2.97472982,9.09806897 L-0.000287719298,9.09806897 L-0.000287719298,8.70124138 C0.0960982456,8.694 0.216940351,8.67227586 0.362238596,8.63606897 C0.506098246,8.60131034 0.625501754,8.55206897 0.71757193,8.49268966 C0.865747368,8.39275862 0.980835088,8.28848276 1.06283509,8.17696552 C1.14483509,8.06689655 1.22395789,7.91482759 1.3030807,7.71931034 C1.69869474,6.72289655 2.13746667,5.60193103 2.6165193,4.35786207 C3.09557193,3.1137931 3.52139649,2.00731034 3.89687018,1.03551724 L4.34139649,1.03551724 L6.97402807,7.89455172 C7.03013333,8.04082759 7.09199298,8.15668966 7.16392281,8.24648276 C7.23441404,8.33627586 7.3322386,8.42462069 7.45883509,8.51006897 C7.54371228,8.5622069 7.65592281,8.60565517 7.79258947,8.64186207 C7.92925614,8.67662069 8.04434386,8.69834483 8.13641404,8.70124138 L8.13641404,9.09806897 Z" id="Fill-14"></path>
                    </g>
                    <path d="M18.1637193,33.2201172 L17.779614,33.2201172 C17.7465263,33.0854276 17.6861053,32.9275655 17.5983509,32.7421862 C17.5105965,32.5568069 17.4142105,32.3830138 17.3048772,32.2193586 C17.1941053,32.0455655 17.0732632,31.8963931 16.9394737,31.7660483 C16.8085614,31.6371517 16.6805263,31.5647379 16.5582456,31.5459103 C16.4431579,31.5314276 16.2978596,31.5198414 16.1237895,31.5126 C15.9482807,31.5039103 15.7871579,31.5010138 15.6375439,31.5010138 L15.3152982,31.5010138 L15.3152982,37.8603931 C15.3152982,37.9834966 15.341193,38.0964621 15.3915439,38.1992897 C15.4433333,38.3021172 15.5354035,38.3817724 15.6648772,38.4382552 C15.7324912,38.4643241 15.8720351,38.500531 16.0849474,38.5439793 C16.2978596,38.5888759 16.4647368,38.6149448 16.5827018,38.6178414 L16.5827018,39.014669 L12.8538596,39.014669 L12.8538596,38.6178414 C12.9574386,38.6106 13.1171228,38.594669 13.3300351,38.5714966 C13.5429474,38.5512207 13.6911228,38.5208069 13.7731228,38.4889448 C13.8954035,38.4397034 13.9845965,38.3701862 14.0421404,38.2774966 C14.0996842,38.1877034 14.1284561,38.0646 14.1284561,37.9110828 L14.1284561,31.5010138 L13.8062105,31.5010138 C13.6911228,31.5010138 13.5487018,31.5024621 13.3775088,31.5082552 C13.2063158,31.5140483 13.0437544,31.5270828 12.888386,31.5459103 C12.7661053,31.5603931 12.6380702,31.6342552 12.5071579,31.7660483 C12.374807,31.8992897 12.2539649,32.0499103 12.1417544,32.2193586 C12.0309825,32.3873586 11.9317193,32.5654966 11.8468421,32.7523241 C11.7619649,32.9420483 11.7015439,33.0970138 11.6684561,33.2201172 L11.2785965,33.2201172 L11.2785965,31.0650828 L18.1637193,31.0650828 L18.1637193,33.2201172 Z" id="Fill-17"></path>
                    <path d="M22.5287088,39.0145241 L18.9710596,39.0145241 L18.9710596,38.6176966 C19.0717614,38.6104552 19.2170596,38.598869 19.4055158,38.5829379 C19.5954105,38.5684552 19.7292,38.546731 19.8068842,38.5163172 C19.9291649,38.4685241 20.0183579,38.4004552 20.0730246,38.3179034 C20.1291298,38.2324552 20.1579018,38.1165931 20.1579018,37.9674207 L20.1579018,32.2076276 C20.1579018,32.0758345 20.1363228,31.9672138 20.0960421,31.8774207 C20.0557614,31.7919724 19.9579368,31.7181103 19.8068842,31.658731 C19.6946737,31.6138345 19.5551298,31.5703862 19.386814,31.5312828 C19.2170596,31.4921793 19.0789544,31.4690069 18.9710596,31.4603172 L18.9710596,31.0649379 L22.5287088,31.0649379 L22.5287088,31.4603172 C22.4136211,31.4646621 22.2755158,31.4805931 22.1158316,31.5023172 C21.957586,31.5283862 21.8180421,31.5588 21.6986386,31.5964552 C21.5576561,31.6399034 21.4627088,31.7137655 21.4152351,31.8151448 C21.3663228,31.9165241 21.3433053,32.0280414 21.3433053,32.1511448 L21.3433053,37.9051448 C21.3433053,38.0282483 21.3692,38.1383172 21.4238667,38.2324552 C21.4770947,38.3280414 21.5691649,38.4048 21.6986386,38.4598345 C21.7777614,38.4902483 21.9029193,38.5221103 22.0798667,38.5583172 C22.256814,38.5930759 22.4064281,38.6148 22.5287088,38.6176966 L22.5287088,39.0145241 Z" id="Fill-19"></path>
                    <path d="M27.9900526,35.7644483 L26.7945789,32.6796207 L25.6149298,35.7644483 L27.9900526,35.7644483 Z M31.1679123,39.0143793 L27.8850351,39.0143793 L27.8850351,38.6175517 C28.174193,38.5987241 28.4144386,38.5625172 28.6057719,38.5060345 C28.7971053,38.4495517 28.8920526,38.3800345 28.8920526,38.2974828 C28.8920526,38.2641724 28.8891754,38.2221724 28.8805439,38.1743793 C28.8733509,38.1251379 28.8618421,38.0831379 28.8474561,38.0454828 L28.1943333,36.2641034 L25.4207193,36.2641034 C25.3171404,36.5247931 25.2322632,36.7536207 25.1675263,36.9476897 C25.1027895,37.1417586 25.043807,37.3213448 24.9920175,37.485 C24.9431053,37.6457586 24.9100175,37.7775517 24.8913158,37.8774828 C24.872614,37.9788621 24.8639825,38.0614138 24.8639825,38.1251379 C24.8639825,38.2728621 24.9805088,38.3887241 25.215,38.4712759 C25.4480526,38.5538276 25.7127544,38.603069 26.0047895,38.6175517 L26.0047895,39.0143793 L23.0297719,39.0143793 L23.0297719,38.6175517 C23.1275965,38.6103103 23.247,38.5885862 23.3922982,38.5523793 C23.5361579,38.5176207 23.6555614,38.4683793 23.7490702,38.409 C23.8972456,38.309069 24.0123333,38.2047931 24.0943333,38.0932759 C24.1748947,37.9832069 24.2554561,37.8311379 24.3331404,37.6356207 C24.730193,36.6392069 25.1675263,35.5182414 25.6465789,34.2741724 C26.1256316,33.0301034 26.5514561,31.9236207 26.9269298,30.9518276 L27.3714561,30.9518276 L30.0040877,37.8108621 C30.060193,37.9571379 30.1234912,38.073 30.1939825,38.1627931 C30.2644737,38.2525862 30.3622982,38.340931 30.4888947,38.4263793 C30.5737719,38.4785172 30.6859825,38.5219655 30.8226491,38.5581724 C30.9593158,38.592931 31.0758421,38.6146552 31.1679123,38.6175517 L31.1679123,39.0143793 Z" id="Fill-21"></path>
                    <path d="M35.9227614,35.7644483 L34.7272877,32.6796207 L33.5476386,35.7644483 L35.9227614,35.7644483 Z M39.1006211,39.0143793 L35.8177439,39.0143793 L35.8177439,38.6175517 C36.1069018,38.5987241 36.3471474,38.5625172 36.5384807,38.5060345 C36.729814,38.4495517 36.8247614,38.3800345 36.8247614,38.2974828 C36.8247614,38.2641724 36.8218842,38.2221724 36.8132526,38.1743793 C36.8060596,38.1251379 36.7945509,38.0831379 36.7801649,38.0454828 L36.1270421,36.2641034 L33.3534281,36.2641034 C33.2498491,36.5247931 33.1649719,36.7536207 33.1002351,36.9476897 C33.0354982,37.1417586 32.9765158,37.3213448 32.9247263,37.485 C32.875814,37.6457586 32.8427263,37.7775517 32.8240246,37.8774828 C32.8053228,37.9788621 32.7966912,38.0614138 32.7966912,38.1251379 C32.7966912,38.2728621 32.9132175,38.3887241 33.1477088,38.4712759 C33.3807614,38.5538276 33.6454632,38.603069 33.9374982,38.6175517 L33.9374982,39.0143793 L30.9624807,39.0143793 L30.9624807,38.6175517 C31.0603053,38.6103103 31.1797088,38.5885862 31.325007,38.5523793 C31.4688667,38.5176207 31.5882702,38.4683793 31.6817789,38.409 C31.8299544,38.309069 31.9450421,38.2047931 32.0270421,38.0932759 C32.1076035,37.9832069 32.1881649,37.8311379 32.2658491,37.6356207 C32.6629018,36.6392069 33.1002351,35.5182414 33.5792877,34.2741724 C34.0583404,33.0301034 34.4841649,31.9236207 34.8596386,30.9518276 L35.3041649,30.9518276 L37.9367965,37.8108621 C37.9929018,37.9571379 38.0562,38.073 38.1266912,38.1627931 C38.1971825,38.2525862 38.295007,38.340931 38.4216035,38.4263793 C38.5064807,38.4785172 38.6186912,38.5219655 38.7553579,38.5581724 C38.8920246,38.592931 39.0085509,38.6146552 39.1006211,38.6175517 L39.1006211,39.0143793 Z" id="Fill-23"></path>
                    <path d="M46.1798105,39.2055517 C45.7093895,39.2055517 45.2576702,39.1128621 44.8260912,38.9260345 C44.3930737,38.7392069 44.010407,38.4683793 43.6780912,38.1178966 C43.347214,37.7674138 43.0839509,37.3372759 42.8868632,36.8303793 C42.691214,36.3234828 42.5919509,35.7528621 42.5919509,35.1185172 C42.5919509,34.4812759 42.6897754,33.9063103 42.8825474,33.3863793 C43.0738807,32.8707931 43.3414596,32.4247241 43.682407,32.051069 C44.0204772,31.6803103 44.4175298,31.395 44.8778807,31.1922414 C45.3382316,30.990931 45.828793,30.8895517 46.3524421,30.8895517 C46.7408632,30.8895517 47.0933193,30.9387931 47.4083719,31.0343793 C47.7234246,31.1328621 48.0240912,31.2704483 48.3089333,31.4456897 L48.5376702,31.0647931 L48.9821965,31.0647931 L49.0325474,33.899069 L48.5765123,33.899069 C48.5175298,33.6238966 48.4268982,33.3226552 48.3089333,32.9996897 C48.1909684,32.6767241 48.0514246,32.403 47.8917404,32.1785172 C47.714793,31.925069 47.5033193,31.7266552 47.2587579,31.5818276 C47.0141965,31.4398966 46.7351088,31.3674828 46.4200561,31.3674828 C46.060407,31.3674828 45.725214,31.4471379 45.4159158,31.6064483 C45.1051789,31.7672069 44.8376,32.0047241 44.6131789,32.319 C44.3973895,32.6231379 44.2290737,33.0083793 44.106793,33.4747241 C43.9845123,33.941069 43.9226526,34.4638966 43.9226526,35.0403103 C43.9226526,35.5486552 43.9873895,36.0135517 44.113986,36.4378966 C44.2420211,36.8636897 44.4247228,37.2358966 44.6620912,37.5574138 C44.8994596,37.8745862 45.179986,38.1236897 45.5051088,38.3032759 C45.828793,38.4828621 46.1913193,38.5726552 46.5912491,38.5726552 C46.8919158,38.5726552 47.1681263,38.5234138 47.4198807,38.4292759 C47.6716351,38.3322414 47.8903018,38.2091379 48.0758807,38.0512759 C48.2614596,37.8861724 48.4254596,37.6993448 48.5650035,37.4893448 C48.705986,37.2822414 48.8210737,37.0534138 48.9102667,36.8072069 L49.3274596,37.0085172 C49.0080912,37.7963793 48.5865825,38.3612069 48.0600561,38.6972069 C47.5320912,39.0361034 46.9063018,39.2055517 46.1798105,39.2055517" id="Fill-25"></path>
                    <path d="M54.6301263,36.2084897 C54.6301263,35.9275241 54.6013544,35.6320759 54.5466877,35.3192483 C54.4905825,35.007869 54.4071439,34.7428345 54.2949333,34.5270414 C54.1769684,34.2953172 54.0201614,34.1084897 53.8273895,33.9694552 C53.6331789,33.8275241 53.3972491,33.7594552 53.1196,33.7594552 C52.8318807,33.7594552 52.5887579,33.8289724 52.3859158,33.9709034 C52.1830737,34.1142828 52.0190737,34.3083517 51.8924772,34.5531103 C51.7730737,34.7833862 51.6896351,35.0426276 51.6407228,35.333731 C51.5932491,35.6262828 51.568793,35.9072483 51.568793,36.1780759 C51.568793,36.5386966 51.5975649,36.8703517 51.6551088,37.1744897 C51.7126526,37.4786276 51.8047228,37.7494552 51.9313193,37.9884207 C52.0564772,38.2288345 52.2161614,38.4156621 52.4074947,38.5518 C52.5988281,38.6893862 52.8361965,38.7574552 53.1196,38.7574552 C53.5828281,38.7574552 53.9511088,38.5315241 54.2230035,38.0796621 C54.4934596,37.6263517 54.6301263,37.0035931 54.6301263,36.2084897 M55.7824421,36.1969034 C55.7824421,36.5850414 55.7205825,36.9659379 55.5983018,37.3424897 C55.4745825,37.7175931 55.3005123,38.0362138 55.0746526,38.2969034 C54.8171439,38.5952483 54.520793,38.819731 54.1827228,38.9645586 C53.8460912,39.1108345 53.4663018,39.1832483 53.0462316,39.1832483 C52.6966526,39.1832483 52.3643368,39.1166276 52.0492842,38.9833862 C51.732793,38.8515931 51.4537053,38.6575241 51.2077053,38.4055241 C50.9660211,38.1549724 50.7732491,37.8493862 50.6308281,37.4887655 C50.488407,37.1281448 50.4164772,36.7226276 50.4164772,36.2751103 C50.4164772,35.4119379 50.666793,34.7066276 51.165986,34.157731 C51.6651789,33.6073862 52.3197404,33.3336621 53.1311088,33.3336621 C53.8993193,33.3336621 54.5337404,33.5929034 55.0329333,34.115731 C55.5321263,34.6356621 55.7824421,35.3308345 55.7824421,36.1969034" id="Fill-27"></path>
                    <path d="M66.1649368,39.0145241 L63.4934632,39.0145241 L63.4934632,38.6452138 C63.5783404,38.6365241 63.6646561,38.6292828 63.7524105,38.6220414 C63.8387263,38.6148 63.9164105,38.6003172 63.982586,38.5771448 C64.0876035,38.5438345 64.1638491,38.4859034 64.2142,38.4004552 C64.2645509,38.3179034 64.289007,38.2078345 64.289007,38.0731448 L64.289007,35.2214897 C64.289007,34.8333517 64.2012526,34.5321103 64.0243053,34.3221103 C63.8487965,34.1106621 63.6286912,34.0049379 63.3654281,34.0049379 C63.1841649,34.0049379 63.0129719,34.0339034 62.8532877,34.0903862 C62.6936035,34.146869 62.5468667,34.2236276 62.4145158,34.3250069 C62.3051825,34.4075586 62.2159895,34.4959034 62.1440596,34.5900414 C62.0721298,34.6870759 62.0160246,34.7652828 61.9800596,34.8290069 L61.9800596,38.0181103 C61.9800596,38.1470069 62.0016386,38.2556276 62.0462351,38.3396276 C62.0908316,38.4236276 62.1670772,38.4888 62.2735333,38.5322483 C62.3598491,38.5655586 62.4360947,38.5916276 62.506586,38.6090069 C62.5742,38.6234897 62.663393,38.6365241 62.7756035,38.6452138 L62.7756035,39.0145241 L60.1587965,39.0145241 L60.1587965,38.6452138 C60.2451123,38.6365241 60.3271123,38.6292828 60.4076737,38.6220414 C60.4867965,38.6148 60.5601649,38.6003172 60.6263404,38.5771448 C60.7313579,38.5438345 60.8076035,38.4859034 60.8579544,38.4004552 C60.9083053,38.3179034 60.9327614,38.2078345 60.9327614,38.0731448 L60.9327614,35.2214897 C60.9327614,34.8333517 60.845007,34.5321103 60.6680596,34.3221103 C60.4911123,34.1106621 60.271007,34.0049379 60.0063053,34.0049379 C59.8250421,34.0049379 59.6538491,34.0353517 59.4927263,34.0932828 C59.3330421,34.1512138 59.1863053,34.2294207 59.0525158,34.3308 C58.9446211,34.4119034 58.8539895,34.5060414 58.7791825,34.6074207 C58.7043754,34.7102483 58.6497088,34.7884552 58.6123053,34.8405931 L58.6123053,38.0065241 C58.6123053,38.1339724 58.6382,38.2396966 58.6899895,38.3251448 C58.7417789,38.4120414 58.8209018,38.4772138 58.9230421,38.5206621 C59.0021649,38.5597655 59.0812877,38.5872828 59.1632877,38.6061103 C59.2438491,38.6234897 59.3359193,38.6365241 59.4351825,38.6452138 L59.4351825,39.0145241 L56.7694632,39.0145241 L56.7694632,38.6452138 C56.8543404,38.6365241 56.9420947,38.6292828 57.0341649,38.6220414 C57.1247965,38.6148 57.2039193,38.6003172 57.2700947,38.5771448 C57.3751123,38.5438345 57.4513579,38.4859034 57.5017088,38.4019034 C57.5520596,38.3179034 57.5765158,38.2078345 57.5765158,38.0745931 L57.5765158,34.6436276 C57.5765158,34.5234207 57.5491825,34.4176966 57.4959544,34.3221103 C57.4427263,34.2265241 57.3664807,34.146869 57.2700947,34.0788 C57.2010421,34.0339034 57.1132877,33.9962483 57.0097088,33.9701793 C56.9046912,33.9397655 56.7982351,33.9223862 56.6860246,33.9151448 L56.6860246,33.5458345 L58.5231123,33.422731 L58.6007965,33.5009379 L58.6007965,34.2916966 L58.6396386,34.2916966 C58.7317088,34.1990069 58.8467965,34.0874897 58.9791474,33.9600414 C59.1129368,33.8340414 59.2380947,33.7312138 59.3531825,33.6530069 C59.4812175,33.5632138 59.6452175,33.4893517 59.8394281,33.4299724 C60.0350772,33.3691448 60.2451123,33.338731 60.4709719,33.338731 C60.8277439,33.338731 61.1327263,33.4343172 61.3902351,33.6269379 C61.6448667,33.8195586 61.829007,34.052731 61.9397789,34.3250069 C62.0735684,34.1946621 62.1915333,34.0802483 62.2936737,33.9803172 C62.3943754,33.8818345 62.5296035,33.7761103 62.6964807,33.6645931 C62.8374632,33.5661103 63.0029018,33.4893517 63.1942351,33.4299724 C63.3841298,33.3691448 63.5970421,33.338731 63.8300947,33.338731 C64.2933228,33.338731 64.6601649,33.4922483 64.9306211,33.7978345 C65.2010772,34.104869 65.3363053,34.5755586 65.3363053,35.2099034 L65.3363053,38.0181103 C65.3363053,38.1470069 65.3578842,38.2556276 65.4024807,38.3396276 C65.4470772,38.4236276 65.5233228,38.4888 65.6297789,38.5322483 C65.7160947,38.5655586 65.8009719,38.5916276 65.8844105,38.6090069 C65.9678491,38.6234897 66.0613579,38.6365241 66.1649368,38.6452138 L66.1649368,39.0145241 Z" id="Fill-29"></path>
                    <path d="M71.0721333,38.1178966 C71.2203088,37.8861724 71.3296421,37.6167931 71.4015719,37.3112069 C71.4706246,37.0041724 71.5065895,36.6638276 71.5065895,36.2858276 C71.5065895,36.0106552 71.4763789,35.7282414 71.4173965,35.4385862 C71.358414,35.1518276 71.2649053,34.9012759 71.1383088,34.6883793 C71.0131509,34.4711379 70.8477123,34.2958966 70.6434316,34.1626552 C70.4405895,34.0279655 70.1945895,33.9598966 69.9083088,33.9598966 C69.6335368,33.9598966 69.4004842,34.0221724 69.2077123,34.1423793 C69.0149404,34.2640345 68.8480632,34.4074138 68.7070807,34.5768621 L68.7070807,37.8441724 C68.7401684,37.9455517 68.7948351,38.0498276 68.8710807,38.157 C68.9458877,38.267069 69.0322035,38.3597586 69.1242737,38.4379655 C69.2393614,38.5306552 69.3645193,38.6074138 69.4968702,38.6653448 C69.6306596,38.7232759 69.7932211,38.7507931 69.9874316,38.7507931 C70.1945895,38.7507931 70.3945544,38.6972069 70.5887649,38.5856897 C70.7815368,38.477069 70.9426596,38.3206552 71.0721333,38.1178966 M71.9798877,34.1467241 C72.1985544,34.4074138 72.3683088,34.7101034 72.4877123,35.0562414 C72.6085544,35.4023793 72.6689754,35.7963103 72.6689754,36.240931 C72.6689754,36.6783103 72.5970456,37.0765862 72.4517474,37.4372069 C72.3078877,37.7978276 72.1165544,38.1048621 71.879186,38.3597586 C71.6303088,38.6175517 71.3540982,38.8145172 71.0491158,38.9535517 C70.7455719,39.0925862 70.4233263,39.1606552 70.0823789,39.1606552 C69.7515018,39.1606552 69.4810456,39.123 69.2695719,39.0491379 C69.0580982,38.9738276 68.8840281,38.8854828 68.7516772,38.7855517 L68.7070807,38.7855517 L68.7070807,40.4467241 C68.7070807,40.5814138 68.7329754,40.6943793 68.7847649,40.7856207 C68.8365544,40.8739655 68.9156772,40.9391379 69.0235719,40.9811379 C69.1127649,41.0144483 69.2408,41.0477586 69.4048,41.0796207 C69.5702386,41.1114828 69.7069053,41.1288621 69.8133614,41.1332069 L69.8133614,41.5025172 L66.7477123,41.5025172 L66.7477123,41.1332069 C66.8628,41.1245172 66.9735719,41.1158276 67.0814667,41.1056897 C67.1893614,41.0941034 67.2857474,41.0752759 67.3706246,41.0492069 C67.4813965,41.0115517 67.5605193,40.9463793 67.6051158,40.8536897 C67.6497123,40.7581034 67.6712912,40.6494828 67.6712912,40.5220345 L67.6712912,34.644931 C67.6712912,34.5319655 67.6439579,34.4233448 67.5878526,34.319069 C67.533186,34.2147931 67.4598175,34.1307931 67.3706246,34.067069 C67.3044491,34.0221724 67.2109404,33.9874138 67.0929754,33.9627931 C66.9735719,33.9381724 66.8584842,33.9236897 66.7477123,33.9164483 L66.7477123,33.5456897 L68.6178877,33.4225862 L68.6955719,33.4906552 L68.6955719,34.1119655 L68.7401684,34.1235517 C68.9329404,33.899069 69.173186,33.7122414 69.4580281,33.563069 C69.7443088,33.4138966 70.0277123,33.3385862 70.3096772,33.3385862 C70.6520632,33.3385862 70.9628,33.411 71.2476421,33.5572759 C71.5310456,33.7021034 71.775607,33.899069 71.9798877,34.1467241" id="Fill-31"></path>
                    <path d="M77.0519474,35.955331 C76.7354561,36.0480207 76.4592456,36.1407103 76.2218772,36.2290552 C75.9845088,36.3202966 75.7644035,36.4332621 75.5601228,36.5679517 C75.3745439,36.6954 75.227807,36.8445724 75.1199123,37.0198138 C75.0134561,37.1936069 74.9587895,37.4007103 74.9587895,37.6396759 C74.9587895,37.9510552 75.0407895,38.1784345 75.2004737,38.3247103 C75.3630351,38.4709862 75.5673158,38.5434 75.816193,38.5434 C76.0794561,38.5434 76.3110702,38.4782276 76.5124737,38.3507793 C76.7124386,38.2204345 76.8807544,38.0683655 77.0188596,37.8931241 L77.0519474,35.955331 Z M78.9954912,38.9141586 C78.8199825,38.9778828 78.6674912,39.0285724 78.5351404,39.0676759 C78.4027895,39.1067793 78.254614,39.1256069 78.0877368,39.1256069 C77.7985789,39.1256069 77.5669649,39.0589862 77.3943333,38.9228483 C77.2217018,38.7867103 77.1109298,38.5868483 77.0634561,38.3261586 L77.0289298,38.3261586 C76.7872456,38.5940897 76.5297368,38.8011931 76.2535263,38.9431241 C75.9758772,39.0836069 75.6435614,39.1560207 75.2537018,39.1560207 C74.8422632,39.1560207 74.504193,39.0285724 74.2380526,38.7736759 C73.9719123,38.5202276 73.841,38.1871241 73.841,37.7772621 C73.841,37.5629172 73.8697719,37.3731931 73.930193,37.2051931 C73.9891754,37.0371931 74.0783684,36.8865724 74.1963333,36.7504345 C74.2898421,36.6389172 74.4121228,36.5389862 74.564614,36.4506414 C74.7156667,36.3637448 74.8595263,36.2927793 74.9918772,36.2406414 C75.160193,36.1769172 75.4968246,36.0596069 76.0089649,35.8872621 C76.5182281,35.7163655 76.8620526,35.5816759 77.0404386,35.4846414 L77.0404386,34.9299517 C77.0404386,34.8821586 77.0303684,34.7880207 77.0102281,34.6504345 C76.9886491,34.5114 76.9469298,34.3810552 76.8793158,34.2579517 C76.8045088,34.1189172 76.6994912,33.9987103 76.5657018,33.8958828 C76.4290351,33.7930552 76.2377018,33.7423655 75.9888246,33.7423655 C75.8176316,33.7423655 75.659386,33.771331 75.5126491,33.8278138 C75.3659123,33.8871931 75.2637719,33.9480207 75.2033509,34.0117448 C75.2033509,34.0856069 75.2220526,34.1956759 75.2565789,34.3419517 C75.2911053,34.4867793 75.309807,34.621469 75.309807,34.7445724 C75.309807,34.8763655 75.2522632,34.9951241 75.1342982,35.1037448 C75.0177719,35.2109172 74.8552105,35.2659517 74.6480526,35.2659517 C74.4624737,35.2659517 74.3243684,35.2007793 74.2380526,35.0675379 C74.1502982,34.9357448 74.1071404,34.7851241 74.1071404,34.621469 C74.1071404,34.4491241 74.1675614,34.285469 74.2884035,34.1276069 C74.4092456,33.9711931 74.5660526,33.8321586 74.7588246,33.7090552 C74.9257018,33.6047793 75.1285439,33.5135379 75.3659123,33.4425724 C75.6032807,33.3687103 75.8348947,33.3325034 76.0607544,33.3325034 C76.3729298,33.3325034 76.6448246,33.3556759 76.8764386,33.3976759 C77.1080526,33.4411241 77.3195263,33.5323655 77.5079825,33.6757448 C77.6964386,33.813331 77.8417368,34.0016069 77.9395614,34.2376759 C78.0388246,34.4766414 78.0877368,34.7807793 78.0877368,35.1544345 C78.0877368,35.6874 78.0819825,36.1624345 78.0704737,36.5737448 C78.0589649,36.9879517 78.0532105,37.4369172 78.0532105,37.9264345 C78.0532105,38.0727103 78.0805439,38.1885724 78.1294561,38.275469 C78.179807,38.3609172 78.2560526,38.4347793 78.3596316,38.4941586 C78.4157368,38.527469 78.5049298,38.5462966 78.6257719,38.5506414 C78.7451754,38.5535379 78.8688947,38.5549862 78.9954912,38.5549862 L78.9954912,38.9141586 Z" id="Fill-33"></path>
                    <path d="M86.1388421,39.0145241 L83.4572982,39.0145241 L83.4572982,38.6452138 C83.5407368,38.6365241 83.6356842,38.6292828 83.7378246,38.6220414 C83.8399649,38.6148 83.9234035,38.6003172 83.9910175,38.5771448 C84.0945965,38.5438345 84.1722807,38.4859034 84.2226316,38.4004552 C84.2729825,38.3179034 84.2974386,38.2078345 84.2974386,38.0731448 L84.2974386,35.2330759 C84.2974386,34.8405931 84.2039298,34.5379034 84.0197895,34.3250069 C83.8370877,34.1121103 83.6126667,34.0049379 83.3494035,34.0049379 C83.1523158,34.0049379 82.9724912,34.0353517 82.8070526,34.0961793 C82.6430526,34.1584552 82.499193,34.2352138 82.3725965,34.3250069 C82.2488772,34.4104552 82.1524912,34.5031448 82.0805614,34.6016276 C82.007193,34.7001103 81.9539649,34.7812138 81.9194386,34.8405931 L81.9194386,38.0181103 C81.9194386,38.1441103 81.9467719,38.2498345 81.9985614,38.3309379 C82.0503509,38.4134897 82.1280351,38.4772138 82.231614,38.5206621 C82.3107368,38.5597655 82.3927368,38.5872828 82.4862456,38.6061103 C82.5754386,38.6234897 82.670386,38.6365241 82.7653333,38.6452138 L82.7653333,39.0145241 L80.0780351,39.0145241 L80.0780351,38.6452138 C80.1643509,38.6365241 80.2521053,38.6292828 80.3441754,38.6220414 C80.4333684,38.6148 80.5124912,38.6003172 80.5801053,38.5771448 C80.6836842,38.5438345 80.7599298,38.4859034 80.8102807,38.4019034 C80.8606316,38.3179034 80.8850877,38.2078345 80.8850877,38.0745931 L80.8850877,34.6668 C80.8850877,34.5393517 80.8577544,34.4220414 80.8045263,34.3163172 C80.7498596,34.2105931 80.6764912,34.1236966 80.5801053,34.0556276 C80.509614,34.0121793 80.4247368,33.9774207 80.3283509,33.9585931 C80.2319649,33.9383172 80.1269474,33.9223862 80.0161754,33.9151448 L80.0161754,33.5458345 L81.843193,33.422731 L81.9194386,33.5009379 L81.9194386,34.2801103 L81.9482105,34.2801103 C82.0374035,34.1903172 82.149614,34.0845931 82.2819649,33.9585931 C82.4157544,33.8340414 82.5423509,33.7312138 82.6617544,33.6530069 C82.7984211,33.5632138 82.9624211,33.4893517 83.1508772,33.4299724 C83.3407719,33.3691448 83.5522456,33.338731 83.789614,33.338731 C84.3161404,33.338731 84.7088772,33.5023862 84.9635088,33.8354897 C85.2152632,34.1642483 85.3432982,34.6059724 85.3432982,35.154869 L85.3432982,38.0282483 C85.3432982,38.1585931 85.3663158,38.2643172 85.4109123,38.3439724 C85.4540702,38.4265241 85.5303158,38.4888 85.6382105,38.5322483 C85.7274035,38.5699034 85.8050877,38.5959724 85.8698246,38.6119034 C85.9331228,38.6249379 86.0237544,38.6365241 86.1388421,38.6452138 L86.1388421,39.0145241 Z" id="Fill-35"></path>
                    <g id="Group-39" transform="translate(86.315789, 32.812862)">
                        <path d="M0.314764912,8.00635862 C0.314764912,7.81953103 0.365115789,7.66746207 0.46725614,7.55015172 C0.569396491,7.43284138 0.697431579,7.37346207 0.848484211,7.37346207 C0.967887719,7.37346207 1.07002807,7.39518621 1.15490526,7.43863448 C1.24122105,7.48497931 1.31602807,7.54146207 1.38220351,7.61387586 C1.43830877,7.66746207 1.49729123,7.74277241 1.56058947,7.84125517 C1.62388772,7.9353931 1.6742386,8.01649655 1.7130807,8.08022069 C1.89722105,7.9773931 2.11876491,7.71670345 2.37627368,7.29091034 C2.63378246,6.86511724 2.8208,6.49291034 2.93444912,6.17284138 C2.58199298,5.28794483 2.26262456,4.49573793 1.97922105,3.79766897 C1.69294035,3.09815172 1.39371228,2.37546207 1.08297544,1.6296 C1.01104561,1.45870345 0.893080702,1.32401379 0.726203509,1.22842759 C0.559326316,1.13428966 0.392449123,1.07346207 0.22557193,1.04594483 L0.22557193,0.676634483 L2.73160702,0.676634483 L2.73160702,1.06911724 C2.62083509,1.07346207 2.48704561,1.09663448 2.3302386,1.13863448 C2.17487018,1.18208276 2.09574737,1.23132414 2.09574737,1.2878069 C2.09574737,1.31097931 2.10581754,1.34718621 2.12164211,1.39932414 C2.13890526,1.45291034 2.15760702,1.50649655 2.18062456,1.56297931 C2.32160702,1.93228966 2.53595789,2.46525517 2.82367719,3.16042759 C3.11139649,3.85704828 3.33725614,4.41463448 3.49550175,4.83318621 C3.66237895,4.43201379 3.83644912,4.01925517 4.01627368,3.59201379 C4.19609825,3.16477241 4.39894035,2.65932414 4.62048421,2.07711724 C4.64781754,2.00615172 4.68378246,1.90766897 4.73269474,1.78311724 C4.78016842,1.65711724 4.80606316,1.5513931 4.80606316,1.46015172 C4.80606316,1.36456552 4.72118596,1.27332414 4.55143158,1.18932414 C4.38311579,1.10532414 4.22343158,1.05318621 4.07094035,1.0358069 L4.07094035,0.676634483 L6.10943158,0.676634483 L6.10943158,1.02422069 C5.99722105,1.04304828 5.85192281,1.10677241 5.66922105,1.21828966 C5.48795789,1.32835862 5.35272982,1.48332414 5.26209825,1.68608276 C4.82188772,2.71725517 4.42771228,3.65573793 4.08532632,4.50442759 C3.74150175,5.35311724 3.48255439,5.97732414 3.30416842,6.3756 C3.06967719,6.89842759 2.8625193,7.30684138 2.67837895,7.60084138 C2.4942386,7.8933931 2.31441404,8.12366897 2.14034386,8.29166897 C1.96915088,8.44953103 1.81522105,8.5538069 1.67567719,8.60884138 C1.53757193,8.66242759 1.39371228,8.68994483 1.24409825,8.68994483 C0.954940351,8.68994483 0.727642105,8.62187586 0.563642105,8.48284138 C0.398203509,8.3438069 0.314764912,8.18594483 0.314764912,8.00635862" id="Fill-37"></path>
                    </g>
                </g>
            </g>
        </g>
    </g>
</svg>